<?xml version="1.0" encoding="UTF-8" standalone="no"?>
<svg
   viewBox="0 0 79.010597 11.999977"
   version="1.1"
   id="svg11"
   sodipodi:docname="logo-horizontal-inverted.svg"
   width="79.010597"
   height="11.999977"
   inkscape:version="1.2.2 (732a01da63, 2022-12-09)"
   inkscape:export-filename="logo-horizontal.svg"
   inkscape:export-xdpi="96"
   inkscape:export-ydpi="96"
   xmlns:inkscape="http://www.inkscape.org/namespaces/inkscape"
   xmlns:sodipodi="http://sodipodi.sourceforge.net/DTD/sodipodi-0.dtd"
   xmlns="http://www.w3.org/2000/svg"
   xmlns:svg="http://www.w3.org/2000/svg">
  <defs
     id="defs15" />
  <sodipodi:namedview
     id="namedview13"
     pagecolor="#ffffff"
     bordercolor="#000000"
     borderopacity="0.25"
     inkscape:showpageshadow="2"
     inkscape:pageopacity="0.0"
     inkscape:pagecheckerboard="0"
     inkscape:deskcolor="#d1d1d1"
     showgrid="false"
     inkscape:zoom="128"
     inkscape:cx="73.664062"
     inkscape:cy="7.4609375"
     inkscape:window-width="1920"
     inkscape:window-height="974"
     inkscape:window-x="-11"
     inkscape:window-y="-11"
     inkscape:window-maximized="1"
     inkscape:current-layer="g9" />
  <style
     id="style2">#text{fill:#000}@media (prefers-color-scheme:dark){#text{fill:#fff}}</style>
  <g
     id="g9">
    <path
       d="m 78.911286,9.4208962 c -0.44318,1.7775968 -2.24359,2.8594178 -4.02139,2.4161338 -1.77708,-0.443181 -2.8589,-2.2436936 -2.41551,-4.0211864 0.44297,-1.777804 2.24338,-2.8597291 4.02066,-2.4165483 1.7777,0.4431807 2.85942,2.2439006 2.41624,4.0216009 z"
       fill="#f7931a"
       id="path4" />
    <path
       d="M 77.15509,8.1454813 C 77.22109,7.7039596 76.88497,7.466608 76.42531,7.3082699 l 0.14911,-0.598097 -0.36407,-0.090731 -0.14517,0.5823357 c -0.0957,-0.023849 -0.19401,-0.04635 -0.29169,-0.068644 L 75.9197,6.5469612 75.55585,6.4562302 75.40663,7.0541199 c -0.0792,-0.018042 -0.15699,-0.035878 -0.23248,-0.054646 l 4.2e-4,-0.00187 -0.50208,-0.125364 -0.0968,0.388846 c 0,0 0.27012,0.061904 0.26442,0.065741 0.14745,0.036811 0.1741,0.1343852 0.16964,0.2117396 -0.40855,1.6384415 0,0 -0.40855,1.6384415 -0.018,0.044795 -0.0638,0.1119877 -0.16684,0.086479 0.004,0.00529 -0.26462,-0.066052 -0.26462,-0.066052 L 73.989,9.6141742 74.46277,9.7322797 c 0.0881,0.022087 0.17452,0.04521 0.25954,0.066985 l -0.15066,0.6049413 0.36365,0.09073 0.14921,-0.5985126 c 0.0993,0.02696 0.19577,0.051846 0.29013,0.075281 l -0.14869,0.5957126 0.36406,0.09073 0.15067,-0.6038 c 0.6208,0.117484 1.08762,0.0701 1.28412,-0.4913975 0.15834,-0.4520983 -0.008,-0.7128844 -0.33451,-0.8829397 0.23787,-0.054853 0.41705,-0.2113248 0.46485,-0.5345336 z m -0.83182,1.1664343 c -0.1125,0.4520983 -0.87371,0.2076956 -1.1205,0.1464135 l 0.19992,-0.8014376 c 0.24679,0.061593 1.03817,0.1835353 0.92058,0.6550241 z M 76.43588,8.1389487 C 76.33323,8.5501922 75.69967,8.3412523 75.49415,8.2900283 L 75.6754,7.5631455 c 0.20552,0.051224 0.86739,0.1468282 0.76048,0.5758032 z"
       fill="#ffffff"
       id="path6" />
    <text
       xml:space="preserve"
       style="font-style:normal;font-variant:normal;font-weight:normal;font-stretch:normal;font-size:16.152px;font-family:'The Bold Font';-inkscape-font-specification:'The Bold Font';fill:#ffffff;fill-opacity:1;stroke-width:0.550636"
       x="0.66223204"
       y="11.95248"
       id="text474"
       transform="scale(0.99604192,1.0039738)"
       inkscape:label="ventuno"><tspan
         sodipodi:role="line"
         id="tspan472"
         x="0.66223204"
         y="11.95248"
         style="fill:#ffffff;fill-opacity:1;stroke-width:0.550636">VENTUNO</tspan></text>
  </g>
</svg>
